<svg width="91" height="60" viewBox="0 0 91 60" fill="none" xmlns="http://www.w3.org/2000/svg">
<path d="M75.0792 29.6352C75.0792 45.8614 61.9256 59.0152 45.6999 59.0152C29.4741 59.0152 16.3206 45.8614 16.3206 29.6352C16.3206 13.4091 29.4741 0.255249 45.6999 0.255249C61.9256 0.255249 75.0792 13.4091 75.0792 29.6352Z" fill="#1F4529"/>
<path d="M8.4263 26.652C8.37034 26.0878 8.13018 25.6494 7.70581 25.3369C7.28145 25.0245 6.70553 24.8683 5.97805 24.8683C5.48373 24.8683 5.06636 24.9382 4.72594 25.0781C4.38552 25.2134 4.12437 25.4022 3.9425 25.6447C3.76529 25.8872 3.67669 26.1624 3.67669 26.4702C3.66736 26.7267 3.72099 26.9505 3.83757 27.1417C3.95882 27.3329 4.12437 27.4985 4.33422 27.6384C4.54407 27.7736 4.78656 27.8925 5.0617 27.9951C5.33684 28.093 5.63063 28.177 5.94307 28.2469L7.23015 28.5547C7.85504 28.6946 8.42863 28.8812 8.95092 29.1143C9.47322 29.3475 9.92556 29.6343 10.308 29.9747C10.6903 30.3152 10.9865 30.7162 11.1963 31.1779C11.4108 31.6396 11.5204 32.1689 11.5251 32.7658C11.5204 33.6425 11.2966 34.4027 10.8536 35.0462C10.4152 35.6851 9.781 36.1818 8.95092 36.5362C8.12551 36.886 7.12989 37.0609 5.96406 37.0609C4.80755 37.0609 3.80027 36.8836 2.94221 36.5292C2.08882 36.1748 1.42197 35.6502 0.941642 34.9553C0.465982 34.2558 0.216493 33.3907 0.193176 32.3601H3.12408C3.15673 32.8404 3.2943 33.2415 3.53679 33.5633C3.78395 33.8804 4.11271 34.1205 4.52308 34.2838C4.93812 34.4423 5.40679 34.5216 5.92908 34.5216C6.44205 34.5216 6.8874 34.447 7.26513 34.2978C7.64752 34.1485 7.94364 33.941 8.15349 33.6752C8.36334 33.4094 8.46827 33.1039 8.46827 32.7588C8.46827 32.437 8.37267 32.1666 8.18147 31.9474C7.99494 31.7282 7.7198 31.5417 7.35606 31.3878C6.99699 31.2339 6.5563 31.094 6.03401 30.9681L4.47412 30.5763C3.26632 30.2825 2.31266 29.8232 1.61316 29.1983C0.913662 28.5734 0.566243 27.7316 0.570907 26.673C0.566243 25.8056 0.797078 25.0478 1.26341 24.3996C1.73441 23.7514 2.38028 23.2454 3.20103 22.8816C4.02178 22.5179 4.95444 22.336 5.99903 22.336C7.06227 22.336 7.99028 22.5179 8.78304 22.8816C9.58047 23.2454 10.2007 23.7514 10.6437 24.3996C11.0867 25.0478 11.3152 25.7986 11.3292 26.652H8.4263Z" fill="#E8ECD7"/>
<path d="M16.4863 30.6463V36.858H13.5064V22.5319H16.4024V28.0091H16.5283C16.7708 27.3749 17.1625 26.8782 17.7034 26.5191C18.2444 26.1554 18.9229 25.9735 19.739 25.9735C20.4851 25.9735 21.1356 26.1367 21.6906 26.4632C22.2502 26.7849 22.6839 27.249 22.9916 27.8552C23.3041 28.4568 23.458 29.1773 23.4533 30.0167V36.858H20.4734V30.5484C20.4781 29.8861 20.3102 29.3708 19.9698 29.0024C19.634 28.634 19.163 28.4498 18.5568 28.4498C18.1511 28.4498 17.792 28.5361 17.4796 28.7086C17.1718 28.8812 16.9293 29.133 16.7521 29.4641C16.5796 29.7905 16.491 30.1846 16.4863 30.6463Z" fill="#E8ECD7"/>
<path d="M30.6529 37.0678C29.5664 37.0678 28.6267 36.837 27.8339 36.3753C27.0458 35.909 26.4373 35.2608 26.0082 34.4307C25.5792 33.5959 25.3647 32.6282 25.3647 31.5277C25.3647 30.4178 25.5792 29.4478 26.0082 28.6177C26.4373 27.7829 27.0458 27.1347 27.8339 26.673C28.6267 26.2067 29.5664 25.9735 30.6529 25.9735C31.7395 25.9735 32.6768 26.2067 33.4649 26.673C34.2577 27.1347 34.8686 27.7829 35.2976 28.6177C35.7266 29.4478 35.9412 30.4178 35.9412 31.5277C35.9412 32.6282 35.7266 33.5959 35.2976 34.4307C34.8686 35.2608 34.2577 35.909 33.4649 36.3753C32.6768 36.837 31.7395 37.0678 30.6529 37.0678ZM30.6669 34.7594C31.1612 34.7594 31.5739 34.6195 31.905 34.3397C32.2361 34.0553 32.4856 33.6682 32.6535 33.1785C32.826 32.6889 32.9123 32.1316 32.9123 31.5067C32.9123 30.8818 32.826 30.3245 32.6535 29.8348C32.4856 29.3452 32.2361 28.9581 31.905 28.6736C31.5739 28.3892 31.1612 28.2469 30.6669 28.2469C30.1679 28.2469 29.7482 28.3892 29.4078 28.6736C29.0721 28.9581 28.8179 29.3452 28.6454 29.8348C28.4775 30.3245 28.3935 30.8818 28.3935 31.5067C28.3935 32.1316 28.4775 32.6889 28.6454 33.1785C28.8179 33.6682 29.0721 34.0553 29.4078 34.3397C29.7482 34.6195 30.1679 34.7594 30.6669 34.7594Z" fill="#E8ECD7"/>
<path d="M37.8788 40.8872V26.1134H40.8167V27.9182H40.9496C41.0802 27.629 41.269 27.3352 41.5162 27.0368C41.768 26.7337 42.0944 26.4818 42.4955 26.2813C42.9012 26.0761 43.4048 25.9735 44.0064 25.9735C44.7898 25.9735 45.5126 26.1787 46.1748 26.5891C46.837 26.9948 47.3663 27.608 47.7627 28.4288C48.1591 29.2449 48.3573 30.2685 48.3573 31.4997C48.3573 32.6982 48.1638 33.7102 47.7767 34.5356C47.3943 35.3564 46.872 35.9789 46.2098 36.4033C45.5523 36.823 44.8155 37.0329 43.9994 37.0329C43.4211 37.0329 42.9292 36.9373 42.5235 36.7461C42.1224 36.5549 41.7936 36.3147 41.5372 36.0256C41.2807 35.7318 41.0848 35.4356 40.9496 35.1372H40.8586V40.8872H37.8788ZM40.7957 31.4857C40.7957 32.1246 40.8843 32.6819 41.0615 33.1575C41.2387 33.6332 41.4952 34.004 41.8309 34.2698C42.1667 34.5309 42.5747 34.6615 43.0551 34.6615C43.5401 34.6615 43.9504 34.5286 44.2862 34.2628C44.622 33.9923 44.8761 33.6192 45.0487 33.1436C45.2259 32.6632 45.3145 32.1106 45.3145 31.4857C45.3145 30.8655 45.2282 30.3198 45.0556 29.8488C44.8831 29.3778 44.629 29.0094 44.2932 28.7436C43.9574 28.4778 43.5447 28.3449 43.0551 28.3449C42.5701 28.3449 42.1597 28.4731 41.824 28.7296C41.4929 28.9861 41.2387 29.3498 41.0615 29.8209C40.8843 30.2919 40.7957 30.8468 40.7957 31.4857Z" fill="#E8ECD7"/>
<path d="M50.3439 40.8872V26.1134H53.2818V27.9182H53.4147C53.5453 27.629 53.7341 27.3352 53.9813 27.0368C54.2331 26.7337 54.5595 26.4818 54.9606 26.2813C55.3663 26.0761 55.8699 25.9735 56.4715 25.9735C57.2549 25.9735 57.9777 26.1787 58.6399 26.5891C59.3021 26.9948 59.8314 27.608 60.2278 28.4288C60.6242 29.2449 60.8224 30.2685 60.8224 31.4997C60.8224 32.6982 60.6289 33.7102 60.2418 34.5356C59.8594 35.3564 59.3371 35.9789 58.6749 36.4033C58.0174 36.823 57.2806 37.0329 56.4645 37.0329C55.8862 37.0329 55.3943 36.9373 54.9886 36.7461C54.5875 36.5549 54.2587 36.3147 54.0023 36.0256C53.7458 35.7318 53.5499 35.4356 53.4147 35.1372H53.3237V40.8872H50.3439ZM53.2608 31.4857C53.2608 32.1246 53.3494 32.6819 53.5266 33.1575C53.7038 33.6332 53.9603 34.004 54.296 34.2698C54.6318 34.5309 55.0398 34.6615 55.5202 34.6615C56.0052 34.6615 56.4155 34.5286 56.7513 34.2628C57.0871 33.9923 57.3412 33.6192 57.5138 33.1436C57.691 32.6632 57.7796 32.1106 57.7796 31.4857C57.7796 30.8655 57.6933 30.3198 57.5207 29.8488C57.3482 29.3778 57.0941 29.0094 56.7583 28.7436C56.4225 28.4778 56.0098 28.3449 55.5202 28.3449C55.0352 28.3449 54.6248 28.4731 54.2891 28.7296C53.958 28.9861 53.7038 29.3498 53.5266 29.8209C53.3494 30.2919 53.2608 30.8468 53.2608 31.4857Z" fill="#E8ECD7"/>
<path d="M62.809 36.858V26.1134H65.7888V36.858H62.809ZM64.3059 24.7284C63.8629 24.7284 63.4828 24.5815 63.1657 24.2877C62.8533 23.9892 62.697 23.6325 62.697 23.2174C62.697 22.807 62.8533 22.4549 63.1657 22.1611C63.4828 21.8627 63.8629 21.7134 64.3059 21.7134C64.7489 21.7134 65.1266 21.8627 65.4391 22.1611C65.7562 22.4549 65.9148 22.807 65.9148 23.2174C65.9148 23.6325 65.7562 23.9892 65.4391 24.2877C65.1266 24.5815 64.7489 24.7284 64.3059 24.7284Z" fill="#E8ECD7"/>
<path d="M71.1558 30.6463V36.858H68.1759V26.1134H71.0159V28.0091H71.1418C71.3796 27.3842 71.7783 26.8899 72.3379 26.5261C72.8975 26.1577 73.576 25.9735 74.3735 25.9735C75.1196 25.9735 75.7701 26.1367 76.3251 26.4632C76.88 26.7896 77.3114 27.256 77.6191 27.8622C77.9269 28.4638 78.0808 29.182 78.0808 30.0167V36.858H75.1009V30.5484C75.1056 29.8908 74.9377 29.3778 74.5973 29.0094C74.2569 28.6363 73.7882 28.4498 73.1913 28.4498C72.7903 28.4498 72.4358 28.5361 72.1281 28.7086C71.8249 28.8812 71.5871 29.133 71.4146 29.4641C71.2467 29.7905 71.1604 30.1846 71.1558 30.6463Z" fill="#E8ECD7"/>
<path d="M85.2699 41.1111C84.3046 41.1111 83.4769 40.9781 82.7867 40.7123C82.1012 40.4512 81.5556 40.0944 81.1499 39.6421C80.7442 39.1897 80.4807 38.6814 80.3594 38.1171L83.1155 37.7464C83.1994 37.9609 83.3323 38.1614 83.5142 38.348C83.6961 38.5345 83.9362 38.6837 84.2347 38.7957C84.5378 38.9122 84.9062 38.9705 85.3399 38.9705C85.9881 38.9705 86.522 38.812 86.9417 38.4949C87.3661 38.1824 87.5783 37.6578 87.5783 36.921V34.9553H87.4524C87.3218 35.2538 87.1259 35.5359 86.8648 35.8017C86.6036 36.0675 86.2679 36.2844 85.8575 36.4523C85.4471 36.6202 84.9575 36.7041 84.3886 36.7041C83.5818 36.7041 82.8473 36.5176 82.1851 36.1445C81.5276 35.7667 81.003 35.1908 80.6113 34.4167C80.2242 33.6379 80.0307 32.6539 80.0307 31.4647C80.0307 30.2476 80.2289 29.2309 80.6252 28.4148C81.0216 27.5987 81.5486 26.9878 82.2061 26.5821C82.8683 26.1764 83.5935 25.9735 84.3816 25.9735C84.9831 25.9735 85.4868 26.0761 85.8925 26.2813C86.2982 26.4818 86.6246 26.7337 86.8718 27.0368C87.1236 27.3352 87.3171 27.629 87.4524 27.9182H87.5643V26.1134H90.5232V36.9629C90.5232 37.877 90.2993 38.6418 89.8517 39.2573C89.404 39.8729 88.7838 40.3346 87.991 40.6424C87.2029 40.9548 86.2959 41.1111 85.2699 41.1111ZM85.3329 34.4656C85.8132 34.4656 86.2189 34.3467 86.55 34.1089C86.8858 33.8664 87.1423 33.5213 87.3195 33.0736C87.5013 32.6213 87.5923 32.0803 87.5923 31.4507C87.5923 30.8212 87.5037 30.2755 87.3265 29.8139C87.1493 29.3475 86.8928 28.9861 86.557 28.7296C86.2213 28.4731 85.8132 28.3449 85.3329 28.3449C84.8432 28.3449 84.4305 28.4778 84.0948 28.7436C83.759 29.0047 83.5049 29.3685 83.3323 29.8348C83.1598 30.3012 83.0735 30.8398 83.0735 31.4507C83.0735 32.071 83.1598 32.6073 83.3323 33.0596C83.5095 33.5073 83.7637 33.8547 84.0948 34.1019C84.4305 34.3444 84.8432 34.4656 85.3329 34.4656Z" fill="#E8ECD7"/>
<path d="M43.6353 17.0137V21.7891H42.7633L40.6858 18.7835H40.6508V21.7891H39.6412V17.0137H40.5272L42.5884 20.017H42.6304V17.0137H43.6353Z" fill="#E8ECD7"/>
<path d="M46.083 21.8591C45.7146 21.8591 45.3975 21.7844 45.1317 21.6352C44.8674 21.4844 44.6638 21.2715 44.5208 20.9963C44.3778 20.7196 44.3063 20.3924 44.3063 20.0147C44.3063 19.6463 44.3778 19.3229 44.5208 19.0447C44.6638 18.7664 44.8651 18.5496 45.1247 18.3941C45.3858 18.2387 45.6921 18.1609 46.0434 18.1609C46.2797 18.1609 46.4996 18.199 46.7032 18.2752C46.9084 18.3498 47.0872 18.4625 47.2395 18.6133C47.3934 18.7641 47.5131 18.9537 47.5986 19.1822C47.6841 19.4092 47.7268 19.675 47.7268 19.9797V20.2525H44.7027V19.6369H46.7918C46.7918 19.4939 46.7608 19.3672 46.6986 19.2569C46.6364 19.1465 46.5501 19.0602 46.4398 18.998C46.3309 18.9343 46.2043 18.9024 46.0597 18.9024C45.9089 18.9024 45.7752 18.9374 45.6587 19.0074C45.5436 19.0758 45.4535 19.1683 45.3882 19.2848C45.3229 19.3999 45.2895 19.5281 45.2879 19.6696V20.2548C45.2879 20.432 45.3206 20.5852 45.3858 20.7142C45.4527 20.8432 45.5467 20.9427 45.668 21.0126C45.7892 21.0826 45.933 21.1176 46.0993 21.1176C46.2097 21.1176 46.3107 21.102 46.4025 21.0709C46.4942 21.0399 46.5727 20.9932 46.638 20.931C46.7032 20.8689 46.753 20.7927 46.7872 20.7025L47.7059 20.7632C47.6592 20.9839 47.5636 21.1766 47.4191 21.3414C47.276 21.5046 47.0911 21.6321 46.8641 21.7238C46.6387 21.814 46.3784 21.8591 46.083 21.8591Z" fill="#E8ECD7"/>
<path d="M49.141 18.2076L49.7985 19.4597L50.4724 18.2076H51.4913L50.4537 19.9983L51.5193 21.7891H50.505L49.7985 20.551L49.1037 21.7891H48.0778L49.141 19.9983L48.1151 18.2076H49.141Z" fill="#E8ECD7"/>
<path d="M53.9862 18.2076V18.9537H51.8294V18.2076H53.9862ZM52.3191 17.3495H53.3124V20.6885C53.3124 20.7803 53.3263 20.8518 53.3543 20.9031C53.3823 20.9528 53.4212 20.9878 53.4709 21.008C53.5222 21.0282 53.5813 21.0383 53.6481 21.0383C53.6947 21.0383 53.7414 21.0344 53.788 21.0266C53.8346 21.0173 53.8704 21.0103 53.8953 21.0057L54.0515 21.7448C54.0018 21.7604 53.9318 21.7782 53.8416 21.7984C53.7515 21.8202 53.6419 21.8334 53.5129 21.8381C53.2735 21.8474 53.0636 21.8155 52.8833 21.7425C52.7046 21.6694 52.5654 21.5559 52.466 21.402C52.3665 21.2482 52.3175 21.0538 52.3191 20.8191V17.3495Z" fill="#E8ECD7"/>
</svg>
