<svg width="91" height="59" viewBox="0 0 91 59" fill="none" xmlns="http://www.w3.org/2000/svg">
<path d="M75.4409 29.5848C75.4409 45.811 62.2869 58.965 46.0607 58.965C29.8345 58.965 16.6805 45.811 16.6805 29.5848C16.6805 13.3586 29.8345 0.204651 46.0607 0.204651C62.2869 0.204651 75.4409 13.3586 75.4409 29.5848Z" fill="#EED3B1"/>
<path d="M8.78604 26.6016C8.73007 26.0373 8.48991 25.5989 8.06553 25.2865C7.64115 24.974 7.06521 24.8178 6.33771 24.8178C5.84338 24.8178 5.426 24.8878 5.08557 25.0277C4.74514 25.1629 4.48398 25.3518 4.30211 25.5943C4.12489 25.8368 4.03629 26.1119 4.03629 26.4197C4.02696 26.6762 4.08059 26.9001 4.19718 27.0913C4.31843 27.2825 4.48398 27.448 4.69384 27.5879C4.90369 27.7232 5.14619 27.8421 5.42134 27.9447C5.69648 28.0426 5.99028 28.1265 6.30274 28.1965L7.58985 28.5043C8.21476 28.6442 8.78837 28.8307 9.31068 29.0639C9.83299 29.2971 10.2853 29.5839 10.6677 29.9243C11.0502 30.2648 11.3463 30.6658 11.5561 31.1275C11.7707 31.5892 11.8803 32.1185 11.8849 32.7154C11.8803 33.5921 11.6564 34.3523 11.2134 34.9958C10.775 35.6347 10.1408 36.1314 9.31068 36.4858C8.48524 36.8356 7.48959 37.0105 6.32372 37.0105C5.16718 37.0105 4.15987 36.8333 3.30179 36.4788C2.44838 36.1244 1.7815 35.5998 1.30116 34.9049C0.825487 34.2054 0.575991 33.3403 0.552673 32.3097H3.48367C3.51631 32.79 3.65388 33.1911 3.89638 33.5129C4.14355 33.83 4.47232 34.0701 4.88271 34.2334C5.29776 34.3919 5.76644 34.4712 6.28875 34.4712C6.80173 34.4712 7.24709 34.3966 7.62483 34.2474C8.00724 34.0981 8.30337 33.8906 8.51322 33.6248C8.72308 33.359 8.82801 33.0535 8.82801 32.7084C8.82801 32.3866 8.73241 32.1161 8.5412 31.897C8.35466 31.6778 8.07952 31.4912 7.71577 31.3373C7.35668 31.1835 6.91598 31.0436 6.39367 30.9176L4.83374 30.5259C3.6259 30.2321 2.67222 29.7728 1.9727 29.1479C1.27318 28.5229 0.925751 27.6812 0.930415 26.6226C0.925751 25.7552 1.15659 24.9974 1.62294 24.3491C2.09395 23.7009 2.73984 23.1949 3.56061 22.8312C4.38139 22.4674 5.31408 22.2855 6.3587 22.2855C7.42197 22.2855 8.35 22.4674 9.14279 22.8312C9.94025 23.1949 10.5605 23.7009 11.0035 24.3491C11.4465 24.9974 11.6751 25.7482 11.689 26.6016H8.78604Z" fill="#1F4529"/>
<path d="M16.8463 30.5959V36.8076H13.8663V22.4814H16.7623V27.9587H16.8882C17.1307 27.3244 17.5225 26.8278 18.0634 26.4687C18.6044 26.1049 19.2829 25.9231 20.099 25.9231C20.8452 25.9231 21.4957 26.0863 22.0507 26.4127C22.6103 26.7345 23.044 27.1985 23.3518 27.8048C23.6643 28.4064 23.8182 29.1269 23.8135 29.9663V36.8076H20.8335V30.4979C20.8382 29.8357 20.6703 29.3204 20.3299 28.952C19.9941 28.5836 19.5231 28.3994 18.9168 28.3994C18.5111 28.3994 18.152 28.4856 17.8396 28.6582C17.5318 28.8307 17.2893 29.0826 17.1121 29.4137C16.9395 29.7401 16.8509 30.1342 16.8463 30.5959Z" fill="#1F4529"/>
<path d="M31.0133 37.0175C29.9267 37.0175 28.987 36.7866 28.1942 36.3249C27.4061 35.8586 26.7975 35.2104 26.3685 34.3803C25.9395 33.5455 25.7249 32.5778 25.7249 31.4773C25.7249 30.3673 25.9395 29.3973 26.3685 28.5672C26.7975 27.7325 27.4061 27.0843 28.1942 26.6226C28.987 26.1562 29.9267 25.9231 31.0133 25.9231C32.0999 25.9231 33.0373 26.1562 33.8254 26.6226C34.6182 27.0843 35.2291 27.7325 35.6581 28.5672C36.0872 29.3973 36.3017 30.3673 36.3017 31.4773C36.3017 32.5778 36.0872 33.5455 35.6581 34.3803C35.2291 35.2104 34.6182 35.8586 33.8254 36.3249C33.0373 36.7866 32.0999 37.0175 31.0133 37.0175ZM31.0273 34.709C31.5216 34.709 31.9344 34.5691 32.2655 34.2893C32.5966 34.0049 32.8461 33.6178 33.0139 33.1281C33.1865 32.6385 33.2728 32.0812 33.2728 31.4563C33.2728 30.8314 33.1865 30.2741 33.0139 29.7844C32.8461 29.2947 32.5966 28.9077 32.2655 28.6232C31.9344 28.3387 31.5216 28.1965 31.0273 28.1965C30.5283 28.1965 30.1086 28.3387 29.7682 28.6232C29.4324 28.9077 29.1782 29.2947 29.0057 29.7844C28.8378 30.2741 28.7539 30.8314 28.7539 31.4563C28.7539 32.0812 28.8378 32.6385 29.0057 33.1281C29.1782 33.6178 29.4324 34.0049 29.7682 34.2893C30.1086 34.5691 30.5283 34.709 31.0273 34.709Z" fill="#1F4529"/>
<path d="M38.2394 40.8368V26.063H41.1774V27.8677H41.3103C41.4408 27.5786 41.6297 27.2848 41.8769 26.9863C42.1287 26.6832 42.4551 26.4314 42.8562 26.2308C43.2619 26.0257 43.7656 25.9231 44.3672 25.9231C45.1506 25.9231 45.8735 26.1282 46.5357 26.5386C47.1979 26.9444 47.7272 27.5576 48.1236 28.3784C48.52 29.1945 48.7182 30.2181 48.7182 31.4493C48.7182 32.6478 48.5247 33.6598 48.1376 34.4852C47.7552 35.306 47.2329 35.9285 46.5707 36.3529C45.9131 36.7726 45.1763 36.9825 44.3602 36.9825C43.7819 36.9825 43.2899 36.8869 42.8842 36.6957C42.4831 36.5045 42.1544 36.2643 41.8979 35.9752C41.6414 35.6814 41.4455 35.3852 41.3103 35.0868H41.2193V40.8368H38.2394ZM41.1564 31.4353C41.1564 32.0742 41.245 32.6315 41.4222 33.1071C41.5994 33.5828 41.8559 33.9536 42.1917 34.2194C42.5274 34.4805 42.9355 34.6111 43.4158 34.6111C43.9008 34.6111 44.3112 34.4782 44.647 34.2124C44.9827 33.9419 45.2369 33.5688 45.4095 33.0931C45.5867 32.6128 45.6753 32.0602 45.6753 31.4353C45.6753 30.815 45.589 30.2694 45.4165 29.7984C45.2439 29.3274 44.9897 28.959 44.654 28.6932C44.3182 28.4273 43.9055 28.2944 43.4158 28.2944C42.9308 28.2944 42.5204 28.4227 42.1847 28.6792C41.8536 28.9357 41.5994 29.2994 41.4222 29.7704C41.245 30.2414 41.1564 30.7964 41.1564 31.4353Z" fill="#1F4529"/>
<path d="M50.7048 40.8368V26.063H53.6428V27.8677H53.7757C53.9063 27.5786 54.0952 27.2848 54.3423 26.9863C54.5942 26.6832 54.9206 26.4314 55.3217 26.2308C55.7274 26.0257 56.231 25.9231 56.8326 25.9231C57.6161 25.9231 58.3389 26.1282 59.0011 26.5386C59.6634 26.9444 60.1927 27.5576 60.5891 28.3784C60.9855 29.1945 61.1837 30.2181 61.1837 31.4493C61.1837 32.6478 60.9901 33.6598 60.6031 34.4852C60.2207 35.306 59.6983 35.9285 59.0361 36.3529C58.3786 36.7726 57.6417 36.9825 56.8256 36.9825C56.2474 36.9825 55.7554 36.8869 55.3497 36.6957C54.9486 36.5045 54.6198 36.2643 54.3633 35.9752C54.1068 35.6814 53.911 35.3852 53.7757 35.0868H53.6848V40.8368H50.7048ZM53.6218 31.4353C53.6218 32.0742 53.7104 32.6315 53.8877 33.1071C54.0649 33.5828 54.3214 33.9536 54.6571 34.2194C54.9929 34.4805 55.4009 34.6111 55.8813 34.6111C56.3663 34.6111 56.7767 34.4782 57.1124 34.2124C57.4482 33.9419 57.7024 33.5688 57.8749 33.0931C58.0521 32.6128 58.1407 32.0602 58.1407 31.4353C58.1407 30.815 58.0545 30.2694 57.8819 29.7984C57.7094 29.3274 57.4552 28.959 57.1194 28.6932C56.7837 28.4273 56.371 28.2944 55.8813 28.2944C55.3963 28.2944 54.9859 28.4227 54.6501 28.6792C54.319 28.9357 54.0649 29.2994 53.8877 29.7704C53.7104 30.2414 53.6218 30.7964 53.6218 31.4353Z" fill="#1F4529"/>
<path d="M63.1703 36.8076V26.063H66.1503V36.8076H63.1703ZM64.6673 24.6779C64.2242 24.6779 63.8442 24.531 63.5271 24.2372C63.2146 23.9387 63.0584 23.582 63.0584 23.1669C63.0584 22.7566 63.2146 22.4045 63.5271 22.1107C63.8442 21.8122 64.2242 21.663 64.6673 21.663C65.1103 21.663 65.488 21.8122 65.8005 22.1107C66.1176 22.4045 66.2762 22.7566 66.2762 23.1669C66.2762 23.582 66.1176 23.9387 65.8005 24.2372C65.488 24.531 65.1103 24.6779 64.6673 24.6779Z" fill="#1F4529"/>
<path d="M71.5173 30.5959V36.8076H68.5374V26.063H71.3774V27.9587H71.5033C71.7412 27.3338 72.1399 26.8394 72.6995 26.4757C73.2591 26.1073 73.9377 25.9231 74.7351 25.9231C75.4813 25.9231 76.1318 26.0863 76.6868 26.4127C77.2417 26.7392 77.6731 27.2055 77.9809 27.8118C78.2887 28.4134 78.4426 29.1315 78.4426 29.9663V36.8076H75.4626V30.4979C75.4673 29.8404 75.2994 29.3274 74.959 28.959C74.6185 28.5859 74.1499 28.3994 73.5529 28.3994C73.1519 28.3994 72.7975 28.4856 72.4897 28.6582C72.1865 28.8307 71.9487 29.0826 71.7762 29.4137C71.6083 29.7401 71.522 30.1342 71.5173 30.5959Z" fill="#1F4529"/>
<path d="M85.6319 41.0607C84.6666 41.0607 83.8388 40.9278 83.1486 40.662C82.4631 40.4008 81.9175 40.0441 81.5117 39.5917C81.106 39.1393 80.8425 38.631 80.7213 38.0667L83.4774 37.696C83.5613 37.9105 83.6942 38.111 83.8761 38.2976C84.058 38.4841 84.2982 38.6334 84.5966 38.7453C84.8997 38.8619 85.2682 38.9202 85.7019 38.9202C86.3501 38.9202 86.8841 38.7616 87.3038 38.4445C87.7281 38.132 87.9403 37.6074 87.9403 36.8706V34.9049H87.8144C87.6838 35.2034 87.488 35.4855 87.2268 35.7513C86.9657 36.0171 86.6299 36.234 86.2195 36.4019C85.8091 36.5698 85.3195 36.6537 84.7505 36.6537C83.9437 36.6537 83.2092 36.4672 82.547 36.0941C81.8895 35.7164 81.3648 35.1404 80.9731 34.3663C80.586 33.5875 80.3925 32.6035 80.3925 31.4143C80.3925 30.1971 80.5907 29.1805 80.9871 28.3644C81.3835 27.5483 81.9105 26.9374 82.568 26.5316C83.2302 26.1259 83.9554 25.9231 84.7435 25.9231C85.3451 25.9231 85.8488 26.0257 86.2545 26.2308C86.6602 26.4314 86.9867 26.6832 87.2338 26.9863C87.4856 27.2848 87.6792 27.5786 87.8144 27.8677H87.9263V26.063H90.8853V36.9125C90.8853 37.8266 90.6615 38.5914 90.2138 39.207C89.7661 39.8225 89.1458 40.2842 88.3531 40.592C87.5649 40.9045 86.6579 41.0607 85.6319 41.0607ZM85.6949 34.4152C86.1752 34.4152 86.5809 34.2963 86.912 34.0585C87.2478 33.816 87.5043 33.4709 87.6815 33.0232C87.8634 32.5708 87.9543 32.0299 87.9543 31.4003C87.9543 30.7707 87.8657 30.2251 87.6885 29.7634C87.5113 29.2971 87.2548 28.9357 86.919 28.6792C86.5833 28.4227 86.1752 28.2944 85.6949 28.2944C85.2052 28.2944 84.7925 28.4273 84.4567 28.6932C84.121 28.9543 83.8668 29.3181 83.6942 29.7844C83.5217 30.2508 83.4354 30.7894 83.4354 31.4003C83.4354 32.0205 83.5217 32.5568 83.6942 33.0092C83.8715 33.4569 84.1256 33.8043 84.4567 34.0515C84.7925 34.294 85.2052 34.4152 85.6949 34.4152Z" fill="#1F4529"/>
<path d="M43.9961 16.9632V21.7386H43.124L41.0465 18.733H41.0115V21.7386H40.0018V16.9632H40.8879L42.9492 19.9665H42.9911V16.9632H43.9961Z" fill="#1F4529"/>
<path d="M46.4439 21.8086C46.0754 21.8086 45.7583 21.734 45.4925 21.5847C45.2282 21.434 45.0246 21.221 44.8816 20.9458C44.7386 20.6691 44.6671 20.3419 44.6671 19.9642C44.6671 19.5958 44.7386 19.2724 44.8816 18.9942C45.0246 18.7159 45.2259 18.4991 45.4855 18.3436C45.7467 18.1882 46.0529 18.1105 46.4042 18.1105C46.6405 18.1105 46.8605 18.1485 47.0641 18.2247C47.2693 18.2993 47.4481 18.412 47.6004 18.5628C47.7543 18.7136 47.874 18.9032 47.9595 19.1318C48.045 19.3587 48.0877 19.6245 48.0877 19.9292V20.202H45.0635V19.5864H47.1527C47.1527 19.4434 47.1216 19.3167 47.0594 19.2064C46.9973 19.096 46.911 19.0097 46.8006 18.9475C46.6918 18.8838 46.5651 18.8519 46.4205 18.8519C46.2697 18.8519 46.1361 18.8869 46.0195 18.9569C45.9044 19.0253 45.8143 19.1178 45.749 19.2344C45.6837 19.3494 45.6503 19.4776 45.6487 19.6191V20.2044C45.6487 20.3816 45.6814 20.5347 45.7467 20.6637C45.8135 20.7927 45.9076 20.8922 46.0288 20.9622C46.1501 21.0321 46.2938 21.0671 46.4602 21.0671C46.5705 21.0671 46.6716 21.0516 46.7633 21.0205C46.855 20.9894 46.9335 20.9427 46.9988 20.8806C47.0641 20.8184 47.1138 20.7422 47.148 20.652L48.0667 20.7127C48.0201 20.9334 47.9245 21.1262 47.7799 21.2909C47.6369 21.4542 47.4519 21.5816 47.225 21.6733C46.9996 21.7635 46.7392 21.8086 46.4439 21.8086Z" fill="#1F4529"/>
<path d="M49.5019 18.1571L50.1595 19.4092L50.8333 18.1571H51.8523L50.8147 19.9479L51.8803 21.7386H50.866L50.1595 20.5005L49.4646 21.7386H48.4387L49.5019 19.9479L48.476 18.1571H49.5019Z" fill="#1F4529"/>
<path d="M54.3473 18.1571V18.9032H52.1904V18.1571H54.3473ZM52.6801 17.299H53.6734V20.6381C53.6734 20.7298 53.6874 20.8013 53.7154 20.8526C53.7434 20.9023 53.7822 20.9373 53.832 20.9575C53.8833 20.9777 53.9423 20.9878 54.0092 20.9878C54.0558 20.9878 54.1024 20.9839 54.1491 20.9762C54.1957 20.9668 54.2315 20.9598 54.2563 20.9552L54.4126 21.6943C54.3628 21.7099 54.2929 21.7278 54.2027 21.748C54.1125 21.7697 54.003 21.7829 53.8739 21.7876C53.6345 21.7969 53.4247 21.7651 53.2444 21.692C53.0656 21.6189 52.9265 21.5055 52.827 21.3516C52.7275 21.1977 52.6785 21.0034 52.6801 20.7686V17.299Z" fill="#1F4529"/>
</svg>
