<?xml version="1.0" encoding="UTF-8"?>
<svg version="1.1" xmlns="http://www.w3.org/2000/svg" width="512" height="512">
<path d="M0 0 C2.35551643 2.68316862 3.90416108 5.25292017 5.5065918 8.44555664 C5.80520615 9.0318132 6.1038205 9.61806976 6.41148376 10.22209167 C7.37713218 12.12338075 8.32646997 14.03232969 9.27612305 15.94165039 C9.94721138 17.26879325 10.61958539 18.59528673 11.29321289 19.92114258 C12.62679593 22.54765212 13.95553622 25.17651463 15.28051758 27.80737305 C17.5366686 32.27715062 19.86553196 36.70710083 22.21362305 41.12915039 C26.03720638 48.36267559 29.81793904 55.61792154 33.58862305 62.87915039 C35.23132494 66.03900809 36.87444355 69.19864855 38.51782227 72.3581543 C39.53841864 74.32098605 40.55831516 76.28418193 41.57739258 78.24780273 C42.93191186 80.85586889 44.29087473 83.46156876 45.65112305 86.06665039 C46.04428711 86.8259082 46.43745117 87.58516602 46.8425293 88.36743164 C49.0363784 92.55707403 51.39037054 96.49391153 54.08862305 100.37915039 C57.55362305 99.88415039 57.55362305 99.88415039 61.08862305 99.37915039 C60.87206055 98.51032227 60.65549805 97.64149414 60.43237305 96.74633789 C60.0147168 95.01770508 60.0147168 95.01770508 59.58862305 93.25415039 C59.31018555 92.11719727 59.03174805 90.98024414 58.74487305 89.80883789 C58.1240854 86.56448341 57.96855537 83.67100582 58.08862305 80.37915039 C59.86206055 79.70727539 59.86206055 79.70727539 62.08862305 79.37915039 C77.27804372 88.26728301 89.63757687 107.98707582 95.08862305 124.37915039 C95.22268555 125.62954102 95.35674805 126.87993164 95.49487305 128.16821289 C95.7887793 129.75762695 95.7887793 129.75762695 96.08862305 131.37915039 C97.85292074 132.65257887 97.85292074 132.65257887 100.08862305 133.37915039 C101.70879557 134.73204955 103.2892405 136.13322482 104.83862305 137.56665039 C107.75524124 140.25276166 110.69124529 142.89734473 113.7019043 145.47680664 C118.67810225 149.82029817 123.35627531 154.46073827 128.02441406 159.12963867 C129.5150392 160.61808276 131.01349322 162.09832316 132.51245117 163.57836914 C138.06163842 169.09587159 143.21989936 174.75342396 148.08691406 180.89770508 C150.16860078 183.47829585 152.35175703 185.93249833 154.58862305 188.37915039 C159.29203505 193.55534904 163.72994706 198.91059233 168.08862305 204.37915039 C169.31258789 205.91055664 169.31258789 205.91055664 170.5612793 207.47290039 C185.03113199 225.79129695 196.19563374 244.25867947 194.08862305 268.37915039 C191.32565675 284.66025379 180.25413946 299.04187819 171.08862305 312.37915039 C170.11298481 313.80727777 169.13773823 315.23567277 168.1628418 316.66430664 C166.00727215 319.82021345 163.84777773 322.97339547 161.6862793 326.12524414 C157.76519855 331.84652164 153.86307997 337.58061989 149.96362305 343.31665039 C149.2569751 344.3560376 148.55032715 345.3954248 147.82226562 346.46630859 C143.93381047 352.18763834 140.04881881 357.91130029 136.16674805 363.63696289 C135.75292877 364.24719803 135.3391095 364.85743317 134.91275024 365.48616028 C132.92366598 368.41935631 130.93503996 371.35286007 128.94750977 374.28710938 C123.0326274 383.01152842 117.0605086 391.69277141 111.08862305 400.37915039 C110.75862305 416.21915039 110.42862305 432.05915039 110.08862305 448.37915039 C52.66862305 448.37915039 -4.75137695 448.37915039 -63.91137695 448.37915039 C-64.24137695 439.79915039 -64.57137695 431.21915039 -64.91137695 422.37915039 C-69.8054505 417.53060757 -69.8054505 417.53060757 -75.14575195 414.64477539 C-80.92899013 412.02140012 -86.0247197 408.47113377 -91.28637695 404.94165039 C-93.27507734 403.64142723 -95.26594461 402.3445119 -97.2590332 401.05102539 C-98.2195459 400.42647461 -99.18005859 399.80192383 -100.16967773 399.15844727 C-103.33059126 397.10709038 -106.49612125 395.06299338 -109.66308594 393.02099609 C-169.23987573 354.59004947 -169.23987573 354.59004947 -176.6887207 326.44165039 C-177.94245318 320.01729572 -177.95886803 313.80470832 -177.61523438 307.30712891 C-177.57003001 306.43734941 -177.52482565 305.5675699 -177.47825146 304.67143345 C-176.94677515 295.54021517 -175.82900319 286.50305599 -174.64803505 277.43687248 C-173.99305141 272.3402113 -173.39071761 267.23719179 -172.78051758 262.13500977 C-172.01151016 255.71034926 -171.22676301 249.28920992 -170.37451172 242.875 C-169.67837921 237.62489275 -169.04280548 232.37038447 -168.44548607 227.1081562 C-168.21045348 225.13112236 -167.95446766 223.15644312 -167.67547035 221.18513298 C-165.63231819 206.63561 -167.79060378 197.74744052 -175.70148277 185.35731697 C-179.73879905 178.75633957 -182.46252056 172.19691048 -181.91137695 164.37915039 C-180.13636803 157.74741493 -177.72167118 151.43064998 -174.03637695 145.62915039 C-169.35951206 137.63911439 -173.81078768 126.8316996 -175.8527832 118.43383789 C-176.44208204 115.95079016 -177.03127147 113.46771646 -177.62036133 110.98461914 C-178.54811436 107.10877153 -179.47878563 103.23363968 -180.41210938 99.35913086 C-181.31655892 95.59412438 -182.21013863 91.82665776 -183.1027832 88.05883789 C-183.38400528 86.90656708 -183.66522736 85.75429626 -183.95497131 84.56710815 C-187.17134449 70.94942507 -187.17134449 70.94942507 -184.93261719 64.60571289 C-181.96881172 61.3408372 -178.66063554 60.24573356 -174.5715332 58.75415039 C-173.69835953 58.42060547 -172.82518585 58.08706055 -171.92555237 57.7434082 C-168.92719463 56.60428672 -165.9197812 55.49144901 -162.91137695 54.37915039 C-160.6582874 53.53365547 -158.40553268 52.68726786 -156.15307617 51.84008789 C-149.23347832 49.24613722 -142.30275336 46.68304932 -135.36976242 44.12519073 C-131.92393388 42.85311117 -128.47933633 41.57770738 -125.03466797 40.30249023 C-119.52782945 38.26412341 -114.02056253 36.2269198 -108.51293945 34.19067383 C-99.30569118 30.78629412 -90.10159508 27.37348481 -80.90063477 23.95214844 C-78.36452747 23.00996468 -75.82746441 22.07039098 -73.2902832 21.13110352 C-65.09522114 18.09171083 -56.92029236 15.00778508 -48.77305603 11.84213257 C-44.63631209 10.23531458 -40.49526994 8.63971819 -36.35427856 7.04388428 C-33.43076948 5.91088758 -30.51480769 4.75986724 -27.59863281 3.6081543 C-25.80610387 2.91630695 -24.01323364 2.225343 -22.2199707 1.53540039 C-21.02597656 1.05392044 -21.02597656 1.05392044 -19.80786133 0.56271362 C-13.2759132 -1.91400349 -6.37593844 -3.5496734 0 0 Z M54.20288086 135.13232422 C53.15447525 135.51760788 52.10606964 135.90289154 51.02589417 136.29985046 C49.87612595 136.72433975 48.72635773 137.14882904 47.54174805 137.58618164 C45.76144447 138.24146599 45.76144447 138.24146599 43.94517517 138.9099884 C40.07556405 140.33515682 36.20696449 141.76304072 32.33862305 143.19165039 C31.02381837 143.67699375 29.70900921 144.16232499 28.39419556 144.64764404 C20.73473373 147.47537134 13.07715914 150.30816705 5.42095947 153.14471436 C2.48482677 154.23238005 -0.45174637 155.31884622 -3.38842773 156.4050293 C-7.50387445 157.92848589 -11.61468788 159.46389543 -15.72387695 161.00415039 C-16.85083984 161.42156494 -17.97780273 161.83897949 -19.13891602 162.26904297 C-20.14277344 162.64826904 -21.14663086 163.02749512 -22.1809082 163.41821289 C-23.01211182 163.72968262 -23.84331543 164.04115234 -24.69970703 164.36206055 C-27.17694315 165.50127742 -28.96055265 166.45655644 -30.91137695 168.37915039 C-31.85823312 171.21979459 -31.85823312 171.21979459 -32.25512695 174.53930664 C-32.44719727 175.79630371 -32.63926758 177.05330078 -32.8371582 178.34838867 C-32.93077637 179.01614319 -33.02439453 179.68389771 -33.12084961 180.37188721 C-33.41362155 182.45764128 -33.72809824 184.53911119 -34.0480957 186.62084961 C-35.08382545 193.4176793 -36.03011201 200.22485179 -36.94262695 207.03930664 C-37.18916016 208.80552368 -37.18916016 208.80552368 -37.44067383 210.60742188 C-37.74788929 212.82437659 -38.03652415 215.04400837 -38.30395508 217.26611328 C-39.44251735 225.47369095 -39.44251735 225.47369095 -42.30981445 228.58618164 C-44.91137695 230.37915039 -44.91137695 230.37915039 -48.53637695 230.44165039 C-52.27579345 229.26442668 -53.02975319 228.69685411 -54.91137695 225.37915039 C-55.07568359 222.9765625 -55.07568359 222.9765625 -54.7590332 220.21899414 C-54.64060059 219.15793457 -54.52216797 218.096875 -54.40014648 217.00366211 C-53.45189412 209.97181665 -52.42773508 202.95460362 -51.34887695 195.94165039 C-50.88499271 192.92274641 -50.42608692 189.90314279 -49.9699707 186.88305664 C-49.86373886 186.20279922 -49.75750702 185.52254181 -49.64805603 184.82167053 C-49.11751027 181.30794585 -48.79560522 177.9330436 -48.91137695 174.37915039 C-58.82959234 177.16195902 -68.43726168 180.76391669 -78.09887695 184.31665039 C-78.99468475 184.64496857 -79.89049255 184.97328674 -80.81344604 185.31155396 C-97.59408392 191.46360169 -114.27062709 197.85931217 -130.91137695 204.37915039 C-129.59437526 225.38957181 -128.22407553 246.39690921 -126.6594677 267.39049149 C-126.34091474 271.67092047 -126.03177425 275.95163632 -125.7421875 280.23413086 C-125.45526431 284.47307407 -125.14606375 288.70984422 -124.82097816 292.94602585 C-124.70264673 294.53781839 -124.59219276 296.1302184 -124.49007225 297.72313309 C-124.34742839 299.92658932 -124.17621938 302.12607599 -123.99804688 304.3269043 C-123.90859299 305.57243073 -123.8191391 306.81795715 -123.72697449 308.10122681 C-122.55709985 312.80300617 -119.92694707 314.89470315 -116.1231842 317.69613647 C-97.48851276 328.32612892 -76.085867 331.79574137 -55.37268066 336.33703613 C-51.30567256 337.23430307 -47.24383547 338.15379505 -43.18202114 339.07424355 C-38.32129607 340.1753259 -33.45848354 341.26701732 -28.5949707 342.35571289 C-27.67410612 342.56201954 -26.75324154 342.76832619 -25.80447197 342.98088455 C-23.21025033 343.55960654 -20.61471832 344.13196545 -18.01855469 344.7019043 C-17.25241348 344.87320862 -16.48627228 345.04451294 -15.69691467 345.2210083 C-12.32150773 345.9552522 -9.38671609 346.37915039 -5.91137695 346.37915039 C-5.40628056 343.2966295 -4.90819696 340.21301514 -4.41137695 337.12915039 C-4.26829102 336.25645508 -4.12520508 335.38375977 -3.9777832 334.48461914 C-3.84243164 333.6402832 -3.70708008 332.79594727 -3.56762695 331.92602539 C-3.44194336 331.15097656 -3.31625977 330.37592773 -3.18676758 329.57739258 C-2.82850629 327.08689197 -2.82850629 327.08689197 -2.91137695 323.37915039 C-4.03415039 323.20899414 -5.15692383 323.03883789 -6.3137207 322.86352539 C-27.1210538 319.557492 -27.1210538 319.557492 -33.91137695 312.37915039 C-37.0566788 306.99482011 -38.66319568 301.6160536 -38.91137695 295.37915039 C-38.95133789 294.46907227 -38.99129883 293.55899414 -39.0324707 292.62133789 C-39.50987996 270.2111855 -35.09491346 251.84507137 -20.97387695 234.00415039 C-13.07547509 223.94083419 -7.21837827 214.803695 -6.3605957 201.75415039 C-5.61113712 196.12343548 -3.31435051 192.0067718 1.15112305 188.44555664 C3.57859376 187.10946893 5.87835858 186.6851965 8.58862305 186.12915039 C13.11794436 185.06270667 14.92684346 183.96038635 17.40112305 180.00415039 C17.8497168 179.21137695 18.29831055 178.41860352 18.76049805 177.60180664 C21.52690318 172.97214628 25.84868533 169.71959957 31.08862305 168.37915039 C34.17091307 167.97545223 37.02419136 167.78062858 40.08862305 168.37915039 C41.71362305 170.69165039 41.71362305 170.69165039 43.08862305 173.37915039 C47.23521879 175.67301187 51.2297978 176.65750413 55.83862305 177.69165039 C74.79776383 182.30141654 87.58784088 197.59912761 97.44946289 213.58862305 C105.15172895 226.71251307 108.76359557 239.30439765 107.08862305 254.37915039 C105.83348596 259.04927974 103.81237098 262.42793882 100.90112305 266.25415039 C98.9974183 269.53639995 98.86460272 270.88587002 98.71362305 274.56665039 C98.2176761 282.66711725 94.4919969 289.41640013 88.71362305 295.06665039 C75.20391544 305.77681783 57.7600503 310.5475421 41.08862305 313.37915039 C40.38938974 317.48140824 39.706252 321.58618551 39.02612305 325.69165039 C38.72738281 327.44251953 38.72738281 327.44251953 38.42260742 329.22875977 C38.14707031 330.90615234 38.14707031 330.90615234 37.8659668 332.61743164 C37.69315186 333.64908447 37.52033691 334.6807373 37.34228516 335.74365234 C36.89858426 338.48513777 36.89858426 338.48513777 38.08862305 341.37915039 C38.54487061 341.04818359 39.00111816 340.7172168 39.47119141 340.3762207 C51.31396125 331.79069266 63.22696676 323.31205492 75.19311523 314.8996582 C84.02211293 308.69029821 92.83125264 302.45622936 101.55126953 296.09423828 C104.98722066 293.59144362 108.43025985 291.12778985 111.9831543 288.79321289 C120.57294155 283.09145017 126.31753153 276.90276605 132.08862305 268.37915039 C132.8156543 267.35692383 133.54268555 266.33469727 134.29174805 265.28149414 C137.90148596 260.61901309 137.90148596 260.61901309 138.89794922 255.10498047 C137.88020058 251.67717849 136.25204933 249.27260023 134.22143555 246.32836914 C133.63588142 245.47202881 133.63588142 245.47202881 133.03849792 244.59838867 C131.77124252 242.74904429 130.49262857 240.90788301 129.21362305 239.06665039 C128.33292331 237.78631294 127.45296219 236.50546711 126.57373047 235.22412109 C124.45079585 232.13356379 122.31937929 229.04897659 120.18536377 225.96606445 C118.76474315 223.91051679 117.35327799 221.84879995 115.9440918 219.78540039 C105.05316668 203.84558114 94.01449923 188.00045427 82.8347168 172.26196289 C80.99236871 169.66719803 79.17481042 167.0574334 77.3737793 164.43383789 C73.11036737 158.26793569 69.01063188 153.06740738 63.08862305 148.37915039 C61.05056197 145.20421171 60.72977128 142.35522562 60.46362305 138.62915039 C60.35147461 137.15188477 60.35147461 137.15188477 60.23706055 135.64477539 C60.18807617 134.89711914 60.1390918 134.14946289 60.08862305 133.37915039 C58.07222822 133.37915039 56.06249123 134.44747535 54.20288086 135.13232422 Z " fill="#EDBB41" transform="translate(251.911376953125,32.620849609375)"/>
<path d="M0 0 C1.625 2.3125 1.625 2.3125 3 5 C7.14659575 7.29386148 11.14117475 8.27835374 15.75 9.3125 C35.03822212 14.02045957 48.30896756 29.9228879 58.35864258 46.20727539 C66.06574623 59.32767981 69.67480573 71.92674842 68 87 C66.74486292 91.67012935 64.72374793 95.04878843 61.8125 98.875 C59.90879526 102.15724956 59.77597968 103.50671963 59.625 107.1875 C59.0960292 115.65103284 55.12118962 122.30617991 49.125 128.1875 C36.16872596 138.77822317 17.65526528 145.61184763 1 146 C0.86722656 147.19496094 0.73445312 148.38992188 0.59765625 149.62109375 C-0.26822917 157.4140625 -1.13411458 165.20703125 -2 173 C-1.54375244 172.6690332 -1.08750488 172.33806641 -0.61743164 171.99707031 C11.2253382 163.41154227 23.13834372 154.93290453 35.10449219 146.52050781 C43.95145194 140.29851526 52.75425104 134.02176018 61.51098633 127.67333984 C67.94268406 123.01983821 74.44681887 118.48070866 81 114 C86.39190397 118.4978935 91.39391684 123.26126542 96.33984375 128.2421875 C97.49027916 129.39474533 97.49027916 129.39474533 98.66395569 130.57058716 C101.0908474 133.00303509 103.51422127 135.43895322 105.9375 137.875 C107.59156486 139.53408552 109.24585945 141.19294202 110.90039062 142.8515625 C114.93625433 146.89839709 118.96924277 150.94807953 123 155 C121.38122734 159.28503971 119.21637429 162.71481392 116.5 166.375 C113.08905429 171.06298321 109.75542987 175.78477558 106.5625 180.625 C101.62002746 188.10160185 96.59572942 195.5218679 91.5625 202.9375 C91.17184357 203.51356995 90.78118713 204.08963989 90.37869263 204.6831665 C83.95861463 214.14970445 77.48026463 223.57416054 71 233 C70.67 248.84 70.34 264.68 70 281 C12.58 281 -44.84 281 -104 281 C-104.33 272.42 -104.66 263.84 -105 255 C-109.89407355 250.15145718 -109.89407355 250.15145718 -115.234375 247.265625 C-121.01763379 244.64224037 -126.11326399 241.09189859 -131.375 237.5625 C-133.35852002 236.26622457 -135.34418056 234.97321823 -137.33203125 233.68359375 C-138.29189941 233.05952637 -139.25176758 232.43545898 -140.24072266 231.79248047 C-151.47293287 224.49581728 -162.72789811 217.2348673 -174 210 C-167.91493472 200.23724149 -161.51510018 190.68365867 -155.10107422 181.13525391 C-153.85651923 179.27941921 -152.61536036 177.42130294 -151.37744141 175.56103516 C-149.57695545 172.85581092 -147.76627646 170.15768384 -145.953125 167.4609375 C-145.3999762 166.62565521 -144.84682739 165.79037292 -144.2769165 164.92977905 C-143.75917664 164.16452911 -143.24143677 163.39927917 -142.70800781 162.61083984 C-142.25613098 161.93564301 -141.80425415 161.26044617 -141.33868408 160.56478882 C-140 159 -140 159 -137 158 C-134.06073189 158.52151964 -131.20609307 159.12393213 -128.3059082 159.81420898 C-126.9738887 160.12122742 -126.9738887 160.12122742 -125.61495972 160.43444824 C-122.67507909 161.11406286 -119.7379893 161.80502808 -116.80078125 162.49609375 C-114.76498883 162.96904766 -112.72903172 163.44129318 -110.69291687 163.91285706 C-105.33023005 165.15686651 -99.9698398 166.41050951 -94.60986328 167.6661377 C-89.14164795 168.94533408 -83.67132623 170.21545411 -78.20117188 171.48632812 C-67.46536086 173.98198143 -56.73195295 176.48781185 -46 179 C-45.93402115 178.17526184 -45.8680423 177.35052368 -45.80006409 176.50079346 C-45.71208054 175.41933044 -45.62409698 174.33786743 -45.53344727 173.22363281 C-45.40354149 171.61527557 -45.40354149 171.61527557 -45.27101135 169.97442627 C-44.98703016 166.85765237 -44.5434725 163.82026068 -43.9375 160.75 C-43.76089844 159.83734375 -43.58429688 158.9246875 -43.40234375 157.984375 C-43.26957031 157.32953125 -43.13679687 156.6746875 -43 156 C-43.79921875 155.97421875 -44.5984375 155.9484375 -45.421875 155.921875 C-55.48317886 155.40227715 -66.04921358 154.07460295 -73.6015625 146.76171875 C-77.95304743 141.27982014 -79.72446124 134.92440892 -80 128 C-80.05994141 126.63488281 -80.05994141 126.63488281 -80.12109375 125.2421875 C-80.59850301 102.83203511 -76.1835365 84.46592098 -62.0625 66.625 C-54.16409814 56.5616838 -48.30700132 47.42454461 -47.44921875 34.375 C-46.62556967 28.18688866 -43.85334761 24.17410047 -39.1640625 20.29296875 C-36.59671029 18.75904532 -34.29452317 18.24274277 -31.375 17.625 C-27.43205135 16.76190787 -27.43205135 16.76190787 -24.4296875 14.25390625 C-23.64347084 12.8767254 -22.8904235 11.48007233 -22.171875 10.06640625 C-19.75631178 5.8069631 -15.79900681 3.04153026 -11.625 0.625 C-7.72379392 -0.30385859 -3.96801832 -0.77500358 0 0 Z " fill="#287DEE" transform="translate(292,200)"/>
<path d="M0 0 C1.625 2.3125 1.625 2.3125 3 5 C7.14659575 7.29386148 11.14117475 8.27835374 15.75 9.3125 C35.03822212 14.02045957 48.30896756 29.9228879 58.35864258 46.20727539 C66.06574623 59.32767981 69.67480573 71.92674842 68 87 C66.74486292 91.67012935 64.72374793 95.04878843 61.8125 98.875 C59.90879526 102.15724956 59.77597968 103.50671963 59.625 107.1875 C59.0960292 115.65103284 55.12118962 122.30617991 49.125 128.1875 C36.16872596 138.77822317 17.65526528 145.61184763 1 146 C0.83564453 147.58361328 0.83564453 147.58361328 0.66796875 149.19921875 C0.24197441 153.22705278 -0.21423148 157.25092669 -0.68359375 161.27392578 C-0.89673416 163.11028828 -1.10497049 164.94722583 -1.30859375 166.78466797 C-1.622501 169.56768825 -1.9644823 172.34606012 -2.3125 175.125 C-2.40571533 175.98826904 -2.49893066 176.85153809 -2.5949707 177.7409668 C-3.55726275 185.06219831 -6.19180978 190.39239479 -11.625 195.4375 C-17.4058915 199.24071809 -24.33797989 198.64995318 -31 198 C-36.70896917 195.94972005 -40.60137416 191.89801959 -44 187 C-48.01007765 177.31579887 -45.09112596 165.94807494 -43 156 C-43.79921875 155.97421875 -44.5984375 155.9484375 -45.421875 155.921875 C-55.48317886 155.40227715 -66.04921358 154.07460295 -73.6015625 146.76171875 C-77.95304743 141.27982014 -79.72446124 134.92440892 -80 128 C-80.03996094 127.08992188 -80.07992187 126.17984375 -80.12109375 125.2421875 C-80.59850301 102.83203511 -76.1835365 84.46592098 -62.0625 66.625 C-54.16409814 56.5616838 -48.30700132 47.42454461 -47.44921875 34.375 C-46.62556967 28.18688866 -43.85334761 24.17410047 -39.1640625 20.29296875 C-36.59671029 18.75904532 -34.29452317 18.24274277 -31.375 17.625 C-27.43205135 16.76190787 -27.43205135 16.76190787 -24.4296875 14.25390625 C-23.64347084 12.8767254 -22.8904235 11.48007233 -22.171875 10.06640625 C-19.75631178 5.8069631 -15.79900681 3.04153026 -11.625 0.625 C-7.72379392 -0.30385859 -3.96801832 -0.77500358 0 0 Z " fill="#E09A75" transform="translate(292,200)"/>
<path d="M0 0 C7.63719286 0.49229292 12.7120451 8.26518114 17.46582031 13.66503906 C26.1762439 23.80860044 37 38.14708699 37 52 C37.56203125 52.24363281 38.1240625 52.48726562 38.703125 52.73828125 C41.44019785 54.24180936 43.45795941 56.06699748 45.75 58.1875 C48.66661819 60.87361127 51.60262224 63.51819434 54.61328125 66.09765625 C59.5894792 70.44114778 64.26765226 75.08158788 68.93579102 79.75048828 C70.42641615 81.23893237 71.92487017 82.71917277 73.42382812 84.19921875 C78.97301537 89.7167212 84.13127631 95.37427357 88.99829102 101.51855469 C91.07997773 104.09914546 93.26313398 106.55334794 95.5 109 C100.203412 114.17619865 104.64132402 119.53144194 109 125 C110.22396484 126.53140625 110.22396484 126.53140625 111.47265625 128.09375 C125.94250894 146.41214656 137.10701069 164.87952908 135 189 C131.63635121 208.82069555 116.36827323 227.00160225 105 243 C101.72803548 241.56741228 99.56796044 239.81174684 97.05761719 237.28466797 C96.29713074 236.52403046 95.53664429 235.76339294 94.75311279 234.97970581 C93.94255432 234.15882477 93.13199585 233.33794373 92.296875 232.4921875 C91.45908508 231.65156769 90.62129517 230.81094788 89.75811768 229.94485474 C87.08401569 227.25955999 84.41695276 224.56739345 81.75 221.875 C79.93795938 220.05292845 78.12546482 218.23130823 76.3125 216.41015625 C71.86971964 211.94532748 67.43269835 207.47483717 63 203 C64.58255591 198.80205758 66.54472629 195.73676276 69.3125 192.1875 C73.31941036 186.94779099 73.31941036 186.94779099 77.125 181.5625 C77.51945312 180.98628906 77.91390625 180.41007813 78.3203125 179.81640625 C79.30538184 177.18389335 78.76623014 175.70136677 78 173 C76.30970843 170.02036256 76.30970843 170.02036256 74.1328125 166.94921875 C73.54725838 166.09287842 73.54725838 166.09287842 72.94987488 165.21923828 C71.68261947 163.3698939 70.40400553 161.52873262 69.125 159.6875 C68.24430026 158.40716254 67.36433914 157.12631671 66.48510742 155.8449707 C64.3621728 152.7544134 62.23075625 149.6698262 60.09674072 146.58691406 C58.67612011 144.5313664 57.26465495 142.46964956 55.85546875 140.40625 C44.96454363 124.46643075 33.92587618 108.62130388 22.74609375 92.8828125 C20.90374566 90.28804764 19.08618738 87.67828301 17.28515625 85.0546875 C13.02174432 78.8887853 8.92200883 73.68825699 3 69 C0.73526424 65.62539374 0.78811751 62.74659442 0.875 58.75 C0.89304687 57.67234375 0.91109375 56.5946875 0.9296875 55.484375 C0.95289063 54.66453125 0.97609375 53.8446875 1 53 C1.63808594 52.72285156 2.27617187 52.44570312 2.93359375 52.16015625 C4.17302734 51.61681641 4.17302734 51.61681641 5.4375 51.0625 C6.67306641 50.52302734 6.67306641 50.52302734 7.93359375 49.97265625 C9.94410117 49.16877677 9.94410117 49.16877677 11 48 C10.5530533 42.05639297 8.68587343 36.91047452 6.5625 31.375 C6.24990234 30.54226562 5.93730469 29.70953125 5.61523438 28.8515625 C4.39952118 25.62336849 3.16968716 22.40897482 1.84765625 19.22265625 C-0.32853609 13.51641921 -1.46875672 7.09383734 -1 1 C-0.67 0.67 -0.34 0.34 0 0 Z " fill="#E29C75" transform="translate(311,112)"/>
<path d="M0 0 C0.66 0.33 1.32 0.66 2 1 C2.74609375 3.36987305 2.74609375 3.36987305 3.4375 6.51171875 C3.69192871 7.65664795 3.94635742 8.80157715 4.20849609 9.98120117 C4.46969238 11.20427979 4.73088867 12.4273584 5 13.6875 C5.2676416 14.91509033 5.5352832 16.14268066 5.81103516 17.4074707 C7.56155185 25.57024142 9.10946308 33.69344007 10 42 C8.35 42.99 6.7 43.98 5 45 C5.28152587 52.88272438 7.84857013 59.37930195 10.72265625 66.62109375 C12 70 12 70 12 72 C19.12745438 71.74544806 24.9533798 69.71284751 31.50195312 67.08349609 C34.49031086 65.89176213 36.74951823 65 40 65 C41.44178656 77.07151906 42.53091242 89.13674899 43.38557053 101.26331711 C43.7348864 106.1842185 44.10377509 111.10367732 44.46875 116.0234375 C44.92819543 122.23565586 45.38186026 128.44816382 45.81738281 134.66210938 C46.17344631 139.73505645 46.54727527 144.80641844 46.93309402 149.87718582 C47.07600395 151.79924596 47.2123149 153.72180878 47.34183884 155.64481735 C47.52270829 158.31864749 47.72619329 160.98985304 47.93505859 163.66162109 C47.98299057 164.45117691 48.03092255 165.24073273 48.08030701 166.05421448 C48.37563912 169.55141572 48.7232975 171.65068909 50.9291687 174.43539429 C53.0691156 176.05221993 55.1609352 177.35291267 57.546875 178.578125 C58.39121094 179.01640625 59.23554688 179.4546875 60.10546875 179.90625 C60.97816406 180.3496875 61.85085937 180.793125 62.75 181.25 C63.63816406 181.70890625 64.52632813 182.1678125 65.44140625 182.640625 C67.62421294 183.7672349 69.81036586 184.88673453 72 186 C65.99314721 195.57737894 59.77422646 205.01494609 53.52832031 214.4375 C52.33235142 216.24491702 51.13969565 218.05453028 49.95019531 219.86621094 C48.21925178 222.50190134 46.4780317 225.13052081 44.734375 227.7578125 C44.20309998 228.57122101 43.67182495 229.38462952 43.12445068 230.22268677 C42.37787201 231.34053055 42.37787201 231.34053055 41.61621094 232.48095703 C41.182099 233.13838898 40.74798706 233.79582092 40.30072021 234.47317505 C39 236 39 236 36 237 C33.72663264 235.69174143 31.72102295 234.36761381 29.625 232.8125 C28.69941284 232.13344604 28.69941284 232.13344604 27.75512695 231.44067383 C11.39346734 219.20019196 -2.31547902 204.80172841 -6.375 184 C-7.01473976 178.57380589 -6.99141766 173.36529648 -6.70385742 167.92797852 C-6.65865306 167.05819901 -6.6134487 166.18841951 -6.5668745 165.29228306 C-6.0353982 156.16106477 -4.91762623 147.12390559 -3.7366581 138.05772209 C-3.08167446 132.96106091 -2.47934065 127.8580414 -1.86914062 122.75585938 C-1.10013321 116.33119887 -0.31538606 109.91005953 0.53686523 103.49584961 C1.23299774 98.24574236 1.86857147 92.99123407 2.46589088 87.72900581 C2.70092347 85.75197197 2.95690929 83.77729272 3.2359066 81.80598259 C5.27905877 67.25645961 3.12077318 58.36829013 -4.79010582 45.97816658 C-8.8291996 39.37428298 -11.54404138 32.8205949 -11 25 C-8.65310895 16.06935265 -4.69794931 7.91063629 0 0 Z " fill="#E29C75" transform="translate(81,172)"/>
<path d="M0 0 C1.625 2.3125 1.625 2.3125 3 5 C7.14659575 7.29386148 11.14117475 8.27835374 15.75 9.3125 C35.03822212 14.02045957 48.30896756 29.9228879 58.35864258 46.20727539 C66.06574623 59.32767981 69.67480573 71.92674842 68 87 C66.74486292 91.67012935 64.72374793 95.04878843 61.8125 98.875 C59.90879526 102.15724956 59.77597968 103.50671963 59.625 107.1875 C59.0960292 115.65103284 55.12118962 122.30617991 49.125 128.1875 C36.16872596 138.77822317 17.65526528 145.61184763 1 146 C4.56879789 140.59161557 8.20198139 135.25020219 12 130 C12.99 130.66 13.98 131.32 15 132 C18.96835367 134.23569221 22.51159629 134.81529322 27 134 C33.08328215 132.27010244 36.68932041 128.87301046 39.9296875 123.5078125 C41.73516802 119.27745304 41.88784761 115.4863804 41 111 C38.92978208 106.76955469 36.5358501 105.65886271 32.25 104.1875 C30.83801142 103.77529043 29.42261484 103.37389236 28 103 C29 98 29 98 29.8125 95.5625 C30.08932706 91.77919686 28.16165291 90.02631407 26 87 C23.31586279 81.36331187 23.43948838 75.12441371 24 69 C24.63267607 67.32013595 25.29425085 65.65049701 26 64 C26.08805146 61.3566226 26.08805146 61.3566226 25 59 C20.89636909 55.98909839 16.52089883 54.8610566 11.6875 53.5625 C-5.94595288 48.54681216 -5.94595288 48.54681216 -11 40 C-11.72285802 37.68345836 -12.3988888 35.35107512 -13 33 C-24.17668501 33.02836722 -33.83596863 33.92238218 -42.77734375 41.5078125 C-43.88929896 42.635883 -44.95200565 43.81227307 -46 45 C-46.66 45 -47.32 45 -48 45 C-48.43067068 37.35958305 -48.33946444 30.21525536 -43.40625 23.98828125 C-39.62900448 20.29617856 -36.47129222 18.66944732 -31.3125 17.5625 C-27.40267816 16.7391041 -27.40267816 16.7391041 -24.43359375 14.2578125 C-23.645661 12.8795803 -22.89122286 11.48164498 -22.171875 10.06640625 C-19.75631178 5.8069631 -15.79900681 3.04153026 -11.625 0.625 C-7.72379392 -0.30385859 -3.96801832 -0.77500358 0 0 Z " fill="#40C2D5" transform="translate(292,200)"/>
<path d="M0 0 C3.56645346 2.37763564 3.84358162 3.58192675 5.234375 7.546875 C5.64059082 8.68882324 6.04680664 9.83077148 6.46533203 11.00732422 C7.3380889 13.54996252 8.20935005 16.09304527 9.07763672 18.63720703 C9.40859848 19.60670792 9.40859848 19.60670792 9.74624634 20.59579468 C10.19223419 21.90400263 10.63654469 23.21278359 11.07919312 24.52212524 C12.31246751 28.13499229 13.66338036 31.6440588 15.2109375 35.1328125 C23.38019088 54.66737108 20.41611581 77.43199004 20 98 C1.52 98 -16.96 98 -36 98 C-30.41018767 93.52815013 -30.41018767 93.52815013 -27.43359375 91.80859375 C-11.35975747 82.36048385 -11.35975747 82.36048385 0 68 C0.43181845 64.75037924 0.43181845 64.75037924 0.34057617 61.19018555 C0.34101425 60.52621262 0.34145233 59.86223969 0.34190369 59.17814636 C0.33982423 56.99736471 0.31653461 54.81736504 0.29296875 52.63671875 C0.28736976 51.1192924 0.28310109 49.6018606 0.28010559 48.08442688 C0.26868058 44.100951 0.23923395 40.11780606 0.20599365 36.13446045 C0.17524197 32.06559729 0.16158939 27.99668038 0.14648438 23.92773438 C0.11436167 15.95167147 0.06319409 7.97587697 0 0 Z " fill="#1573D8" transform="translate(342,383)"/>
<path d="M0 0 C3.48350269 1.99753301 6.19448387 4.38896774 8 8 C8.76150694 14.82859498 8.12694137 19.4581073 4 25 C3.01 25.33 2.02 25.66 1 26 C0.88897949 26.98645508 0.77795898 27.97291016 0.66357422 28.98925781 C-0.560827 39.71533334 -1.94481703 50.41367781 -3.49462891 61.09765625 C-3.75115816 62.88644559 -4.0010129 64.67620317 -4.24462891 66.46679688 C-4.60349805 69.10008832 -4.98303858 71.72966753 -5.3671875 74.359375 C-5.52367264 75.55309723 -5.52367264 75.55309723 -5.68331909 76.77093506 C-6.407941 81.53656163 -7.41905633 84.520697 -11 88 C-14.63293114 89.23674251 -16.24191953 89.34458203 -19.75 87.75 C-22 86 -22 86 -24 83 C-24.11895619 75.25633152 -22.52487047 67.40738077 -21.23046875 59.79296875 C-20.89524404 57.72220562 -20.56129626 55.65123544 -20.22851562 53.58007812 C-19.70908676 50.36760661 -19.18231174 47.1571463 -18.6340332 43.94946289 C-18.10163996 40.81721991 -17.60098342 37.68122834 -17.10546875 34.54296875 C-16.84953194 33.11152779 -16.84953194 33.11152779 -16.58842468 31.65116882 C-15.60838339 25.21100538 -16.32460453 22.3612156 -20 17 C-20.60452636 12.69274972 -20.35177942 10.66447224 -18.3125 6.8125 C-12.92425763 0.25923225 -8.49372823 -1.65021006 0 0 Z " fill="#CC3745" transform="translate(220,175)"/>
<path d="M0 0 C-2.2481637 0.92137857 -4.49840453 1.8370724 -6.75 2.75 C-7.36488281 3.00265625 -7.97976563 3.2553125 -8.61328125 3.515625 C-12.57969022 5.11821448 -16.57465104 6.54019646 -20.640625 7.87109375 C-27.51347815 10.13215657 -34.2492644 12.71314628 -41 15.3125 C-49.41786524 18.53763603 -57.84525937 21.70494808 -66.375 24.625 C-74.49134683 27.40600301 -82.46107667 30.50069337 -90.43505859 33.66455078 C-97.38019545 36.40553059 -104.37857478 38.917624 -111.44140625 41.3359375 C-117.8642133 43.55491046 -124.18426211 45.99388829 -130.5 48.5 C-138.41373666 51.64020443 -146.36389103 54.57314458 -154.41943359 57.32714844 C-162.02488666 59.95181108 -169.49896982 62.88620685 -176.9609375 65.89257812 C-182.89479272 68.26188174 -188.84808402 70.27273768 -195 72 C-196.30492469 67.84055256 -197.12019705 64.34963091 -197 60 C-181.47263717 54.68455851 -165.86442136 49.66623189 -150.1875 44.8125 C-148.81100784 44.38632385 -148.81100784 44.38632385 -147.40670776 43.95153809 C-146.46223785 43.65912231 -145.51776794 43.36670654 -144.54467773 43.06542969 C-128.74257591 38.17175059 -112.95665214 33.22801905 -97.17653751 28.26400566 C-92.64923776 26.83987894 -88.12151084 25.41712239 -83.59335804 23.99571037 C-70.07862324 19.75333684 -56.5649864 15.50838993 -43.07211304 11.19689941 C-38.28537588 9.66803433 -33.49646204 8.14605898 -28.70733643 6.62469482 C-26.50166596 5.92162903 -24.29717418 5.21485371 -22.09393311 4.50421143 C-19.09407084 3.53671349 -16.09057196 2.58145988 -13.0859375 1.62890625 C-11.77713623 1.20103065 -11.77713623 1.20103065 -10.44189453 0.76451111 C-9.64428711 0.5142366 -8.84667969 0.2639621 -8.02490234 0.00610352 C-7.33890961 -0.21399887 -6.65291687 -0.43410126 -5.94613647 -0.66087341 C-3.68022922 -1.05572208 -2.17109683 -0.69894744 0 0 Z " fill="#D8991B" transform="translate(286,142)"/>
<path d="M0 0 C4.49352471 4.51133319 6.52843378 9.10329282 8.63671875 15.04296875 C9.11888603 16.35372627 9.11888603 16.35372627 9.61079407 17.69096375 C10.64810913 20.51901118 11.6680977 23.35295211 12.6875 26.1875 C13.39669192 28.13402543 14.10698375 30.08015047 14.81835938 32.02587891 C16.22952035 35.88864027 17.6347989 39.7534698 19.03662109 43.61962891 C20.74432895 48.31662943 22.49341571 52.99646758 24.26953125 57.66796875 C24.74331838 58.91965013 25.21703573 60.17135792 25.69067383 61.4230957 C26.54084029 63.66447247 27.39586898 65.90401322 28.2565918 68.14135742 C28.6256665 69.12338135 28.99474121 70.10540527 29.375 71.1171875 C29.69210938 71.94847168 30.00921875 72.77975586 30.3359375 73.63623047 C31.07088812 76.25233045 31.26246158 78.29586724 31 81 C28.9375 83.875 28.9375 83.875 26 86 C22.375 86.0625 22.375 86.0625 19 85 C16.4753652 82.2146969 15.20316835 79.34855895 13.91870117 75.84277344 C13.53787888 74.81359802 13.15705658 73.78442261 12.76469421 72.72406006 C12.36152481 71.61371399 11.95835541 70.50336792 11.54296875 69.359375 C11.11752274 68.20439514 10.69207672 67.04941528 10.2537384 65.85943604 C8.89202924 62.15856809 7.53956745 58.45439994 6.1875 54.75 C4.84720369 51.09794014 3.50505648 47.44656472 2.16262817 43.79528809 C1.29569518 41.43362279 0.43114678 39.0710807 -0.43093872 36.7076416 C-2.23428414 31.76782266 -4.04599811 26.83601655 -5.97412109 21.94335938 C-6.26010666 21.21151428 -6.54609222 20.47966919 -6.84074402 19.72564697 C-7.56608014 17.88261328 -8.30513675 16.04499433 -9.0456543 14.20800781 C-10.11286896 10.62059398 -10.28708436 7.72394252 -10 4 C-7.2869004 -0.06964941 -4.77707618 -0.97491351 0 0 Z " fill="#311C29" transform="translate(98,104)"/>
<path d="M0 0 C4.38290973 4.40289174 6.01368119 9.74210316 8.046875 15.46875 C8.42177063 16.49947632 8.79666626 17.53020264 9.18292236 18.59216309 C10.38099854 21.89158098 11.5659349 25.1955312 12.75 28.5 C13.91811273 31.73413936 15.08896452 34.96727078 16.2611084 38.19995117 C17.03383811 40.3344047 17.80346139 42.46998545 18.56994629 44.60668945 C20.43340888 49.78251003 22.34721228 54.92585494 24.39648438 60.03125 C24.7742804 60.98140991 25.15207642 61.93156982 25.5413208 62.91052246 C26.25156693 64.68450126 26.97493988 66.45330594 27.71405029 68.2154541 C29.70627804 73.20991034 30.44508185 76.61771911 29 82 C26.75662843 84.57572291 25.36710755 84.93881541 22 85.5 C19 85 19 85 17.01782227 82.98022461 C14.59382208 79.40009511 13.17811205 75.86389708 11.71484375 71.81640625 C11.26801743 70.6160524 11.26801743 70.6160524 10.81216431 69.39144897 C9.84459678 66.78514615 8.89062114 64.17411687 7.9375 61.5625 C7.27337393 59.76025144 6.6085736 57.9582512 5.94311523 56.15649414 C4.60047472 52.51775083 3.26318119 48.8770982 1.92871094 45.23535156 C0.17321099 40.45496996 -1.62259153 35.69074826 -3.4296875 30.9296875 C-4.19358675 28.9024921 -4.9560247 26.87475668 -5.71749878 24.84664917 C-6.42150495 22.97991235 -7.13556609 21.11697741 -7.84985352 19.25415039 C-11.72324458 8.85096737 -11.72324458 8.85096737 -11 3 C-8.91978122 -1.03042389 -4.01683517 -1.17189817 0 0 Z " fill="#301C29" transform="translate(133,92)"/>
<path d="M0 0 C4.42888793 3.3421598 5.86432526 7.91548961 7.765625 12.9296875 C8.10861633 13.81099335 8.45160767 14.69229919 8.80499268 15.60031128 C12.59084137 25.3905346 16.18124561 35.25405467 19.75 45.125 C21.03438363 48.67002695 22.32122551 52.21415241 23.609375 55.7578125 C24.05977394 57.00119637 24.05977394 57.00119637 24.51927185 58.2696991 C26.34293268 63.28075839 28.25400259 68.23687401 30.38598633 73.12670898 C31.43823973 76.33702325 30.96769073 78.83887694 30 82 C28.875 83.9375 28.875 83.9375 27 85 C23.41095164 85.45678797 21.063642 85.74473397 18.03027344 83.62084961 C14.97636463 79.67860442 13.60356313 75.30197131 11.953125 70.62890625 C11.57822937 69.59676498 11.20333374 68.56462372 10.81707764 67.50120544 C9.61747995 64.19201176 8.43327785 60.87756002 7.25 57.5625 C6.08215055 54.32157227 4.91111709 51.08181233 3.73913574 47.84237671 C2.96593148 45.70228535 2.19549798 43.56119088 1.42785645 41.4190979 C-0.43428546 36.2389297 -2.33962824 31.08457578 -4.36132812 25.96435547 C-4.73461243 25.01415024 -5.10789673 24.06394501 -5.49249268 23.08494568 C-6.19328766 21.31293353 -6.90383127 19.54473141 -7.62615967 17.78138733 C-9.50524255 13.02401087 -10.53537228 9.20827722 -10 4 C-7.26646839 -0.10029741 -4.80388991 -0.80064832 0 0 Z " fill="#301C29" transform="translate(166,79)"/>
<path d="M0 0 C4.32761111 1.31373909 5.02733049 2.30898057 7.5 6.0625 C9.03663196 9.48635379 10.29172586 12.99602587 11.546875 16.53125 C11.92177063 17.56197632 12.29666626 18.59270264 12.68292236 19.65466309 C13.88099854 22.95408098 15.0659349 26.2580312 16.25 29.5625 C17.41813866 32.79671114 18.58901706 36.0299147 19.7611084 39.26269531 C20.53362951 41.39641015 21.30325355 43.53117616 22.06994629 45.66699219 C23.93803272 50.85286237 25.85436861 56.00881284 27.89648438 61.12890625 C28.2742804 62.08357788 28.65207642 63.03824951 29.0413208 64.02185059 C29.75299273 65.80824156 30.47650409 67.58998008 31.21405029 69.36584473 C33.04859055 73.98366832 34.05845306 77.12271016 32.5 82.0625 C30.875 84.5 30.875 84.5 28.5 86.0625 C25 86.1875 25 86.1875 21.5 85.0625 C17.26259728 79.93278886 15.37355549 73.8688517 13.1640625 67.6640625 C12.76222748 66.55630463 12.36039246 65.44854675 11.94638062 64.30722046 C10.66502664 60.76999267 9.39471987 57.22891853 8.125 53.6875 C6.8631378 50.1915132 5.59903193 46.6963449 4.33441162 43.20135498 C3.51701286 40.93895029 2.70208348 38.6756518 1.88970947 36.41143799 C0.16504632 31.61192844 -1.5725277 26.82375787 -3.43847656 22.07714844 C-3.86599716 20.9822963 -3.86599716 20.9822963 -4.30215454 19.86532593 C-5.03318712 18.00951621 -5.77879196 16.15946375 -6.52587891 14.31005859 C-7.60773928 10.70331506 -7.78686028 7.80865766 -7.5 4.0625 C-5.26568948 0.48760317 -4.23610788 0.07564478 0 0 Z " fill="#311C29" transform="translate(197.5,65.9375)"/>
<path d="M0 0 C4.02069502 3.07641521 5.45923892 7.00383756 7.12890625 11.62109375 C7.73836574 13.24726241 8.34790851 14.87339986 8.95751953 16.49951172 C9.28391418 17.38177429 9.61030884 18.26403687 9.94659424 19.17303467 C11.05907623 22.15853952 12.19791023 25.13291329 13.34326172 28.10595703 C15.46497069 33.61387645 17.56108418 39.13103883 19.64575195 44.65307617 C20.51383171 46.94427514 21.38762358 49.23331732 22.2668457 51.52026367 C23.55532433 54.87421331 24.82443001 58.23494762 26.08984375 61.59765625 C26.48348618 62.61030045 26.8771286 63.62294464 27.28269958 64.66627502 C29.53508466 70.72391248 30.5716249 75.52898028 30 82 C27.82470111 84.76095629 26.45440825 84.93373213 23 85.4375 C19.24134649 84.88936303 18.42072348 83.86463449 16 81 C14.75538635 78.44252014 14.75538635 78.44252014 13.69750977 75.51977539 C13.09151695 73.87139427 13.09151695 73.87139427 12.47328186 72.18971252 C12.05026291 71.00433395 11.62724396 69.81895538 11.19140625 68.59765625 C10.50564091 66.71938942 9.81987542 64.84112264 9.13410091 62.96285915 C8.17652272 60.33105532 7.22944715 57.6955167 6.28198242 55.06005859 C4.86502092 51.12603109 3.43270432 47.19757667 2.00269222 43.26827908 C0.88655093 40.20047463 -0.22667023 37.13168313 -1.33433533 34.06080627 C-3.78874336 27.26515852 -6.33866174 20.52269611 -9.03114319 13.81736755 C-10.38774205 9.87247335 -10.61079153 7.12284284 -10 3 C-7.83165681 -1.08158719 -4.19361486 -0.51500533 0 0 Z " fill="#301B29" transform="translate(234,54)"/>
<path d="M0 0 C0.66 0 1.32 0 2 0 C2.02505615 1.16345947 2.0501123 2.32691895 2.07592773 3.52563477 C2.17135157 7.91487391 2.27122094 12.30400332 2.37231445 16.69311523 C2.41516079 18.57915651 2.45686159 20.46522423 2.49731445 22.35131836 C2.69282979 31.43433346 2.89273992 40.51846189 3.41015625 49.58984375 C3.47468994 50.74218506 3.53922363 51.89452637 3.60571289 53.08178711 C3.98635217 55.89898914 4.42918301 57.65017089 6 60 C8.20310311 61.31086163 10.21749536 62.32618779 12.5625 63.3125 C13.24054688 63.60519775 13.91859375 63.89789551 14.6171875 64.19946289 C25.05239125 68.49301925 36.10057527 71.16171679 47 74 C47 74.33 47 74.66 47 75 C27.86 75 8.72 75 -11 75 C-11 41.92675051 -11 41.92675051 -6.72314453 25.77587891 C-5.96200611 22.85415579 -5.26852924 19.92238776 -4.58984375 16.98046875 C-3.74214237 13.31125 -2.89346249 9.64261287 -2.015625 5.98046875 C-1.84321289 5.25754639 -1.67080078 4.53462402 -1.49316406 3.78979492 C-1 2 -1 2 0 0 Z " fill="#1573D8" transform="translate(199,406)"/>
<path d="M0 0 C3.31906836 2.3718814 5.16377905 4.37786693 6.25390625 8.375 C7.34315614 15.1325794 6.18675338 20.34985721 2.65625 26.18359375 C0.47616362 29.0557431 -1.85792968 31.78605561 -4.28222656 34.4543457 C-8.44245408 39.05329075 -12.08999761 43.98077148 -13.59375 50.12109375 C-13.84125 51.13171875 -14.08875 52.14234375 -14.34375 53.18359375 C-19.71217105 53.54148849 -19.71217105 53.54148849 -22.21875 52.12109375 C-23.53491519 49.85436481 -24.06462343 47.97120664 -23.953125 45.33984375 C-22.09210693 38.75470287 -16.45686171 33.10602828 -11.59375 28.49609375 C-7.05997144 24.14906122 -4.64849926 19.75219465 -3.90625 13.49609375 C-4.3750386 9.94669438 -5.18100943 8.01179296 -7.34375 5.18359375 C-10.33372825 3.68860462 -13.04417775 4.06781929 -16.34375 4.18359375 C-17.33375 4.51359375 -18.32375 4.84359375 -19.34375 5.18359375 C-20.83381626 8.57763357 -21.47931023 11.84411666 -21.90625 15.49609375 C-22.34375 19.18359375 -22.34375 19.18359375 -23.34375 20.18359375 C-26.28125 20.37109375 -26.28125 20.37109375 -29.34375 20.18359375 C-32.00623083 17.52111292 -32.06207705 15.9157603 -32.34375 12.18359375 C-31.53634435 6.53175419 -29.57754234 3.77974565 -25.1875 0.40625 C-17.77840995 -4.50698133 -7.59993936 -4.50078376 0 0 Z " fill="#2C1828" transform="translate(386.34375,93.81640625)"/>
<path d="M0 0 C3.48350269 1.99753301 6.19448387 4.38896774 8 8 C8.76551509 14.86453699 8.08084492 19.40341268 4 25 C0.57670149 27.28219901 -0.84137668 27.29741163 -4.875 27.3125 C-5.90367187 27.32925781 -6.93234375 27.34601563 -7.9921875 27.36328125 C-11.42704398 26.94842196 -13.23902805 26.05523128 -16 24 C-19.39453687 19.22929953 -20.87159882 15.99224187 -20 10 C-15.38728967 1.28710272 -9.73264311 -1.89091352 0 0 Z " fill="#E74045" transform="translate(220,175)"/>
<path d="M0 0 C-5.98540769 8.1011797 -15.06886518 13.32673547 -25 15 C-28.35306876 15.20238001 -31.64733252 15.19260005 -35 15 C-34.85957123 13.35369672 -34.71250671 11.70795821 -34.5625 10.0625 C-34.48128906 9.14597656 -34.40007812 8.22945313 -34.31640625 7.28515625 C-34 5 -34 5 -33 4 C-30.0414708 3.67127453 -27.08959033 3.38593988 -24.125 3.125 C-17.51502411 2.50392429 -11.35956102 1.60105598 -5.03125 -0.51171875 C-3 -1 -3 -1 0 0 Z " fill="#D48F6E" transform="translate(283,351)"/>
<path d="M0 0 C-1.45336318 3.80797391 -3.17908118 4.96067277 -6.8125 6.6875 C-7.66457031 7.10386719 -8.51664062 7.52023437 -9.39453125 7.94921875 C-19.89504011 12.18405666 -30.79252749 10.11906843 -41 6 C-41.66 5.34 -42.32 4.68 -43 4 C-42.31075439 3.98541748 -41.62150879 3.97083496 -40.91137695 3.95581055 C-23.99346122 3.75123163 -23.99346122 3.75123163 -7.453125 0.62109375 C-4.87656721 -0.0312513 -2.64660639 -0.10948192 0 0 Z " fill="#D48F6E" transform="translate(436,284)"/>
<path d="M0 0 C-12.04985403 9.12712348 -23.73728455 13.27418052 -39 13 C-39.33 12.34 -39.66 11.68 -40 11 C-35.70918652 9.55994483 -31.41719664 8.12342678 -27.125 6.6875 C-25.92101562 6.28337891 -24.71703125 5.87925781 -23.4765625 5.46289062 C-19.98810064 4.29691017 -16.49553179 3.1445953 -13 2 C-11.51064941 1.5062085 -11.51064941 1.5062085 -9.99121094 1.00244141 C-9.1046582 0.71933105 -8.21810547 0.4362207 -7.3046875 0.14453125 C-6.53882324 -0.10321045 -5.77295898 -0.35095215 -4.98388672 -0.60620117 C-3 -1 -3 -1 0 0 Z " fill="#D48F6E" transform="translate(128,348)"/>
<path d="M0 0 C1.65 0.33 3.3 0.66 5 1 C5.98940097 4.14809399 6.14359877 5.62833259 4.9375 8.75 C3 11 3 11 -0.125 11.875 C-1.07375 11.91625 -2.0225 11.9575 -3 12 C-4 11 -4 11 -4.3125 8.25 C-3.93491949 4.32316275 -2.66026601 2.82653264 0 0 Z " fill="#341E2C" transform="translate(274,288)"/>
<path d="M0 0 C3 0.1875 3 0.1875 5 1.1875 C5.36174071 7.57825249 5.36174071 7.57825249 3.8125 10.1875 C2 11.1875 2 11.1875 -0.5625 11.0625 C-3 10.1875 -3 10.1875 -5 7.1875 C-5.25 4.625 -5.25 4.625 -5 2.1875 C-3 0.1875 -3 0.1875 0 0 Z " fill="#2B1827" transform="translate(368,147.8125)"/>
<path d="M0 0 C0.7425 0.2475 1.485 0.495 2.25 0.75 C2.73337596 7.03388747 2.73337596 7.03388747 0.5625 10.25 C-1.75 11.75 -1.75 11.75 -4.5 11.5 C-5.2425 11.2525 -5.985 11.005 -6.75 10.75 C-7.23337596 4.46611253 -7.23337596 4.46611253 -5.0625 1.25 C-2.75 -0.25 -2.75 -0.25 0 0 Z " fill="#321C2B" transform="translate(244.75,269.25)"/>
<path d="M0 0 C1.01126953 0.49113281 1.01126953 0.49113281 2.04296875 0.9921875 C5.61501454 2.20960865 8.54711647 2.195381 12.3125 2.125 C13.56675781 2.10695312 14.82101562 2.08890625 16.11328125 2.0703125 C17.06589844 2.04710937 18.01851563 2.02390625 19 2 C16.25562806 4.86911611 14.88314521 5.91341714 10.8125 6.3125 C6.09902705 5.92614976 3.91664251 4.55780736 0 2 C0 1.34 0 0.68 0 0 Z " fill="#4C2F36" transform="translate(246,252)"/>
<path d="M0 0 C6.89947445 -0.41396847 10.67883785 0.98159813 15.875 5.5 C18 8 18 8 18 11 C17.34 11 16.68 11 16 11 C15.38125 9.8553125 15.38125 9.8553125 14.75 8.6875 C12.54134498 5.29563693 10.75463756 4.44409137 7 3 C3.26228166 2.2863276 3.26228166 2.2863276 0 2 C0 1.34 0 0.68 0 0 Z " fill="#442932" transform="translate(279,271)"/>
<path d="M0 0 C0.66 0.309375 1.32 0.61875 2 0.9375 C5.70476015 2.24960255 9.09263991 2.60264135 13 3 C13 3.33 13 3.66 13 4 C4.8645605 5.44282367 4.8645605 5.44282367 1.4375 3.6875 C0 2 0 2 0 0 Z " fill="#623F3F" transform="translate(246,252)"/>
</svg>
